<?xml version="1.0" encoding="UTF-8" standalone="no"?>
<svg
   xmlns:dc="http://purl.org/dc/elements/1.1/"
   xmlns:cc="http://creativecommons.org/ns#"
   xmlns:rdf="http://www.w3.org/1999/02/22-rdf-syntax-ns#"
   xmlns:svg="http://www.w3.org/2000/svg"
   xmlns="http://www.w3.org/2000/svg"
   xmlns:sodipodi="http://sodipodi.sourceforge.net/DTD/sodipodi-0.dtd"
   xmlns:inkscape="http://www.inkscape.org/namespaces/inkscape"
   width="81.55928mm"
   height="98.011742mm"
   viewBox="0 0 81.55928 98.011742"
   version="1.1"
   id="svg8"
   inkscape:version="1.0.1 (3bc2e813f5, 2020-09-07)"
   sodipodi:docname="绘图-1.svg">
  <defs
     id="defs2" />
  <sodipodi:namedview
     id="base"
     pagecolor="#ffffff"
     bordercolor="#666666"
     borderopacity="1.0"
     inkscape:pageopacity="0"
     inkscape:pageshadow="2"
     inkscape:zoom="0.7"
     inkscape:cx="395.27064"
     inkscape:cy="189.5498"
     inkscape:document-units="mm"
     inkscape:current-layer="layer1"
     inkscape:document-rotation="0"
     showgrid="false"
     fit-margin-top="0"
     fit-margin-left="0"
     fit-margin-right="0"
     fit-margin-bottom="0"
     inkscape:window-width="1680"
     inkscape:window-height="985"
     inkscape:window-x="-8"
     inkscape:window-y="-8"
     inkscape:window-maximized="1" />
  <metadata
     id="metadata5">
    <rdf:RDF>
      <cc:Work
         rdf:about="">
        <dc:format>image/svg+xml</dc:format>
        <dc:type
           rdf:resource="http://purl.org/dc/dcmitype/StillImage" />
        <dc:title></dc:title>
      </cc:Work>
    </rdf:RDF>
  </metadata>
  <g
     inkscape:label="图层 1"
     inkscape:groupmode="layer"
     id="layer1"
     transform="translate(-65.774051,-56.223233)">
    <path
       style="fill:#ffffff;stroke-width:0.264583"
       d="m 80.603424,154.1235 c -2.595065,-0.31256 -3.034242,-0.54206 -4.233333,-2.21215 -1.158148,-1.61307 -1.166265,-1.72089 -0.274786,-3.65019 1.333262,-2.88539 1.729994,-3.81838 1.729994,-4.06845 0,-0.14356 0.535781,-1.36184 1.190625,-2.70729 0.654844,-1.34545 1.190625,-2.63946 1.190625,-2.87558 0,-0.23612 0.106945,-0.54241 0.237657,-0.68066 0.130712,-0.13824 0.558014,-1.08479 0.949563,-2.10344 0.391551,-1.01864 0.879917,-2.22726 1.085262,-2.68582 0.205343,-0.45855 0.373351,-1.00028 0.373351,-1.20385 0,-0.20356 0.107635,-0.48323 0.239191,-0.62147 0.131554,-0.13825 0.913239,-1.97776 1.737072,-4.08781 0.823836,-2.11006 1.668701,-4.21164 1.877478,-4.6702 0.208775,-0.45855 0.379592,-0.90151 0.379592,-0.98434 0,-0.0828 0.304443,-0.83875 0.676543,-1.67981 1.626946,-3.67742 1.602554,-3.51357 0.523076,-3.51357 -0.495242,0 -1.711897,0.16884 -2.703674,0.37521 -2.673713,0.55633 -6.879712,1.00796 -7.703034,0.82713 -0.482944,-0.10608 -0.982364,-0.57121 -1.511742,-1.40798 -0.752697,-1.18975 -0.788752,-1.37806 -0.753134,-3.93369 0.0485,-3.47941 0.13434,-3.62035 2.250646,-3.69507 0.924383,-0.0326 1.986669,-0.11694 2.360639,-0.18735 2.092161,-0.39388 11.140953,-0.95895 17.97318,-1.12235 2.692135,-0.0644 7.037915,-0.23403 9.657295,-0.37696 2.61937,-0.14295 7.20328,-0.3339 10.18645,-0.42435 2.98318,-0.0904 5.49303,-0.20598 5.57745,-0.25674 0.0844,-0.0508 3.04205,-0.11191 6.5725,-0.13591 l 6.41902,-0.0436 1.14933,1.12798 c 1.37362,1.34811 1.85559,2.93492 1.63393,5.37944 -0.11806,1.30203 -0.27893,1.73294 -0.82099,2.1992 -0.78948,0.67908 -2.05389,0.63426 -2.86704,-0.10163 -0.56623,-0.51243 -1.69516,-0.57701 -4.8319,-0.2764 -1.84912,0.1772 -5.56127,0.33054 -14.55209,0.60111 -2.61937,0.0788 -6.36984,0.26 -8.33437,0.40261 -1.96453,0.1426 -5.07976,0.32939 -6.92272,0.41508 l -3.350838,0.15581 0.276955,0.79447 c 0.488429,1.40111 0.05288,3.62731 -1.262263,6.45173 -0.672256,1.44375 -1.44127,3.10125 -1.70892,3.68333 -0.26765,0.58208 -1.217287,2.58813 -2.110304,4.45787 -0.893016,1.86975 -2.017778,4.37714 -2.499471,5.57197 -0.481692,1.19484 -1.005408,2.40348 -1.163817,2.68588 -0.158406,0.2824 -0.579321,1.16829 -0.935366,1.96866 -0.356044,0.80036 -1.075057,2.38055 -1.597805,3.51153 -0.522748,1.13098 -0.950452,2.22238 -0.950452,2.42535 0,0.20296 -0.103804,0.40871 -0.230675,0.45722 -0.314819,0.12036 -1.577504,2.93824 -1.688705,3.7686 -0.04946,0.36932 -0.341218,0.9605 -0.648351,1.31373 -0.307134,0.35324 -0.599181,0.80281 -0.648994,0.99906 -0.07205,0.28385 -0.469228,0.31119 -1.94265,0.13372 z m 18.289984,-8.90837 c -4.795573,-2.39362 -5.04712,-8.74396 -0.63395,-16.00397 0.707668,-1.16417 1.429872,-2.35479 1.604902,-2.64583 0.67268,-1.11856 4.12809,-4.33989 5.49766,-5.12522 1.22053,-0.69987 1.70615,-0.82331 3.24725,-0.82543 2.10211,-0.003 3.08537,0.38651 4.66992,1.84935 1.26969,1.17217 1.33724,1.93682 0.18283,2.06967 -0.73897,0.085 -0.73897,0.085 0.26684,0.81521 1.62097,1.17675 2.16385,2.69104 2.05224,5.72433 -0.18667,5.07304 -2.37444,8.59566 -7.36401,11.85707 -4.2729,2.79297 -7.13158,3.47879 -9.523682,2.28482 z m 2.084802,-2.90406 c -0.0923,-0.14927 0.0124,-0.19476 0.2438,-0.10597 0.68564,0.2631 3.01497,-1.74857 5.39532,-4.65956 0.53548,-0.65485 1.12242,-1.28584 1.30432,-1.40221 0.1819,-0.11637 0.33073,-0.34513 0.33073,-0.50834 0,-0.16321 0.16651,-0.48471 0.37003,-0.71445 1.62626,-1.83583 3.16611,-6.52458 2.53193,-7.70956 -0.17682,-0.33038 -0.31113,-1.11661 -0.29847,-1.74716 l 0.023,-1.14647 -0.93971,0.39263 c -1.01738,0.42509 -3.00972,1.90513 -3.00972,2.23582 0,0.11204 -0.26789,0.49408 -0.59531,0.84896 -0.32742,0.35489 -1.30534,1.71173 -2.17314,3.0152 -0.86781,1.30347 -1.66343,2.43153 -1.76805,2.5068 -0.50089,0.36037 -1.80743,3.68251 -2.07715,5.28158 -0.31493,1.86714 -0.0212,3.97428 0.55405,3.97428 0.1485,0 0.19726,-0.1177 0.10835,-0.26155 z m 23.28146,1.74485 c -3.46939,-0.66478 -4.34111,-1.43319 -6.78093,-5.9773 -1.31238,-2.44426 0.19866,-8.02702 3.29524,-12.17475 5.72613,-7.66992 11.95206,-9.85002 16.14773,-5.65435 0.71222,0.71222 1.03141,2.74393 0.43108,2.74393 -0.14758,0 0.0465,0.47581 0.43138,1.05735 1.9713,2.97883 1.47435,8.62716 -1.09495,12.44512 -0.50609,0.75206 -0.92017,1.46455 -0.92017,1.58332 0,0.11877 -0.0937,0.25564 -0.20824,0.30414 -0.11453,0.0485 -0.62054,0.62398 -1.12447,1.27882 -3.22282,4.18792 -5.69049,5.25332 -10.17667,4.39372 z m 2.32962,-4.11188 c 1.11522,-0.51433 4.47015,-3.57339 5.21101,-4.75145 0.21828,-0.3471 0.6414,-0.94194 0.94028,-1.32188 1.50939,-1.91881 2.62513,-5.92354 2.26923,-8.14498 -0.20337,-1.26938 -0.76752,-2.46769 -1.16175,-2.46769 -1.04445,0 -7.287,5.94109 -9.81477,9.34079 -1.60646,2.1606 -2.38856,5.31952 -1.45924,5.89387 0.12673,0.0783 0.23041,0.3519 0.23041,0.60795 0,0.48326 1.35492,1.30853 2.19733,1.33838 0.26265,0.009 0.97702,-0.21344 1.5875,-0.49499 z M 68.415594,110.92377 c -0.380793,-0.19756 -1.168617,-0.73641 -1.750719,-1.19744 -1.252767,-0.99221 -1.29473,-0.51309 0.587598,-6.70892 0.751572,-2.47385 1.594045,-5.331355 1.872162,-6.35 0.278117,-1.018646 0.755991,-2.685521 1.061942,-3.704167 0.305951,-1.018646 0.965333,-3.221302 1.465289,-4.894792 0.499957,-1.67349 1.498195,-4.839468 2.218307,-7.035507 0.720111,-2.196039 1.309293,-4.180414 1.309293,-4.40972 0,-0.22931 0.09055,-0.456613 0.201231,-0.505122 0.202031,-0.08854 1.314715,-2.983754 2.474317,-6.438194 0.341945,-1.018646 0.693767,-1.911614 0.781828,-1.984375 0.300958,-0.248665 0.733097,-1.806707 0.555916,-2.004301 -0.09726,-0.108463 -0.05327,-0.127171 0.09775,-0.04157 0.151024,0.08559 0.428781,-0.222738 0.617239,-0.685185 0.466635,-1.14506 3.12879,-7.036998 3.539381,-7.833433 0.182211,-0.35344 0.688052,-0.737943 1.124093,-0.85445 0.774044,-0.20682 4.094374,0.230619 4.366575,0.575277 0.07276,0.09213 0.608541,0.435396 1.190625,0.762817 1.130887,0.636122 2.800638,2.550761 3.080165,3.531905 0.240707,0.844887 0.0037,4.036864 -0.427397,5.755195 -0.705888,2.813892 -2.073648,10.395123 -1.552583,8.605674 0.08367,-0.287348 0.435906,-0.940065 0.782743,-1.45048 0.346837,-0.510419 0.630613,-1.004435 0.630613,-1.097817 0,-0.298167 3.188877,-5.84834 4.620424,-8.041752 0.759801,-1.164167 1.965799,-3.030615 2.679996,-4.147662 1.807178,-2.826536 3.364958,-3.646831 5.161358,-2.717872 0.44176,0.228439 1.05201,0.3381 1.37593,0.247251 0.35271,-0.09892 0.45614,-0.07479 0.26249,0.06125 -0.22276,0.156479 0.0556,0.502443 0.91867,1.141811 0.68105,0.50452 1.39585,1.214964 1.58845,1.578767 0.37583,0.709906 0.26008,3.149162 -0.16228,3.419646 -0.13074,0.08373 -0.4774,0.68801 -0.77037,1.342854 -2.61393,5.842714 -3.27497,7.50773 -3.15811,7.954603 0.0738,0.282035 0.0399,0.454578 -0.0752,0.383423 -0.11513,-0.07115 -0.35086,0.432711 -0.52385,1.119699 -0.17298,0.686985 -0.74145,2.263084 -1.26327,3.502443 -0.52181,1.239356 -1.03469,2.789155 -1.13972,3.443999 -0.10503,0.654844 -0.27958,1.577578 -0.38788,2.050521 -0.19373,0.845982 -0.18168,0.859896 0.74497,0.859896 1.49705,0 2.18706,-0.393142 2.63396,-1.500748 0.22476,-0.557036 0.85763,-1.965294 1.40638,-3.129461 1.25654,-2.665738 1.25211,-2.632649 0.50091,-3.739599 -0.71668,-1.056101 -1.12211,-3.153929 -0.73041,-3.779391 0.15853,-0.253129 0.72194,-0.450218 1.42578,-0.498747 1.60372,-0.11058 5.22923,-0.681509 9.63035,-1.516542 2.03729,-0.386538 3.98106,-0.691996 4.3195,-0.678794 0.87796,0.03424 2.77997,1.68438 3.16327,2.744375 0.49236,1.361612 -0.10657,2.940791 -1.1577,3.052461 -2.02022,0.214622 -7.6859,1.820693 -7.40692,2.099667 0.0692,0.06916 -0.16515,0.58655 -0.52068,1.149755 -0.35554,0.563206 -0.64643,1.092222 -0.64643,1.175594 0,0.08337 -0.29239,0.58188 -0.64976,1.10779 -0.6955,1.023522 -0.66692,1.396973 0.10691,1.396973 0.46425,0 1.82564,1.434603 1.88311,1.984375 0.0152,0.145521 0.14364,0.404339 0.2854,0.575152 0.37478,0.451583 -0.61588,2.239714 -1.53434,2.769449 -0.41403,0.2388 -1.43531,0.574231 -2.26952,0.745403 -0.83421,0.171172 -1.58658,0.424217 -1.67193,0.562321 -0.0853,0.138105 -0.26839,0.181137 -0.40675,0.09563 -0.30211,-0.186722 -2.62229,4.640517 -2.62229,5.455809 0,0.700466 0.74371,0.625134 5.82083,-0.589616 1.81901,-0.435216 3.58378,-0.857197 3.9217,-0.937736 1.09242,-0.260372 3.86895,1.210974 3.92073,2.07768 0.0205,0.342646 0.14282,0.892675 0.2719,1.22229 0.19226,0.490988 0.34409,0.132366 0.84011,-1.984375 0.33298,-1.421021 0.76848,-3.119453 0.96777,-3.774297 0.19929,-0.654844 0.43857,-1.607344 0.53172,-2.116667 0.31691,-1.732783 1.5074,-5.941777 3.10569,-10.980209 2.06134,-6.498167 2.28564,-6.716982 6.07267,-5.92419 2.44075,0.510955 2.69677,0.963041 2.98029,5.262732 0.0816,1.236927 0.1972,2.487083 0.25699,2.778125 0.0598,0.291042 0.12919,1.184011 0.15424,1.984375 l 0.0455,1.455209 0.40346,-1.322917 c 0.2219,-0.727604 0.49458,-1.561042 0.60594,-1.852084 0.11136,-0.291041 0.64615,-1.779323 1.18843,-3.307291 1.80938,-5.098297 2.77685,-7.133215 3.47462,-7.308345 1.90537,-0.478216 4.84026,1.488569 4.48956,3.008627 -0.24936,1.080786 -0.27518,1.152282 -0.90266,2.499265 -0.31829,0.683239 -0.5787,1.326843 -0.5787,1.430234 0,0.103389 -0.27031,0.556403 -0.60069,1.006703 -0.55374,0.754732 -0.98709,1.582163 -1.53737,2.935391 -0.11835,0.291042 -0.56231,1.303073 -0.98657,2.248958 -0.88068,1.96346 -2.00163,5.545268 -1.79887,5.748023 0.0747,0.0747 -0.0286,0.300183 -0.22947,0.501087 -0.44075,0.440748 -0.82094,2.298491 -1.14629,5.601115 -0.36538,3.70898 -1.19711,4.341988 -4.27904,3.256648 -1.84273,-0.648941 -2.07041,-1.000948 -2.09131,-3.233266 -0.01,-1.016847 -0.0722,-1.937682 -0.13936,-2.046296 -0.0671,-0.108614 -0.26054,-1.739114 -0.4298,-3.623331 -0.31297,-3.483907 -0.58753,-4.651037 -0.86272,-3.66739 -0.0779,0.278365 -0.40362,1.458619 -0.72386,2.622786 -0.32024,1.164166 -0.84858,2.890573 -1.17408,3.836458 -0.67676,1.966637 -1.49523,5.039567 -1.66193,6.23977 -0.18658,1.343239 -1.68524,2.75606 -2.92352,2.75606 -1.32089,0 -2.74219,-0.93796 -3.10534,-2.049313 l -0.2746,-0.84037 -1.41501,0.655582 c -0.77825,0.360572 -2.52525,0.910614 -3.88221,1.222321 -1.36262,0.313 -2.39778,0.67905 -2.31215,0.8176 0.0898,0.14529 -0.0695,0.17963 -0.37835,0.0816 -0.29337,-0.0931 -1.05242,0.0115 -1.68678,0.23239 -1.32644,0.46195 -6.84156,0.5698 -7.62753,0.14916 -0.26743,-0.14313 -1.02252,-0.29196 -1.67798,-0.33073 -0.65546,-0.0388 -1.14426,-0.11906 -1.08622,-0.17841 0.0581,-0.0593 -0.31809,-0.62488 -0.83586,-1.256747 -1.175303,-1.434299 -1.245788,-3.341982 -0.21466,-5.809801 0.47943,-1.147455 0.52499,-1.067027 -0.7169,-1.265616 -0.790597,-0.12642 -1.4105,-0.490765 -2.290872,-1.346443 -0.663839,-0.645218 -1.336947,-1.099135 -1.495795,-1.0087 -0.158851,0.09043 -0.196839,0.06328 -0.08442,-0.06035 0.112419,-0.123621 -0.283117,-0.72151 -0.878972,-1.328639 L 94.191303,87.6127 95.144536,83.805693 c 1.178367,-4.706155 1.921224,-7.793845 2.125366,-8.834092 l 0.155768,-0.79375 -0.549402,0.79375 c -0.30217,0.436563 -1.110618,1.805782 -1.796547,3.042709 -0.685927,1.236927 -1.390859,2.487083 -1.566511,2.778125 -0.175651,0.291042 -0.441063,0.798282 -0.589798,1.127202 -0.148739,0.328919 -0.745115,1.54931 -1.325285,2.711979 -0.58017,1.162669 -0.969605,2.115767 -0.86541,2.117995 0.104193,0.0021 0.06374,0.09153 -0.0899,0.198437 -0.43661,0.303829 -1.362461,3.173564 -1.705771,5.287156 -0.24715,1.521585 -0.449654,2.026439 -0.980233,2.44379 -0.3678,0.289314 -0.756846,0.471564 -0.864545,0.405003 -0.107696,-0.06656 -0.588568,-0.0084 -1.068599,0.129291 -1.316662,0.377614 -2.843572,-0.125754 -4.352338,-1.434806 l -1.313322,-1.139481 0.438308,-1.028491 c 0.509813,-1.196274 0.924679,-4.307745 1.371875,-10.288908 0.09678,-1.294467 0.09267,-1.303002 -0.19136,-0.396875 -0.159646,0.509322 -0.435935,1.074626 -0.61397,1.256228 -0.362884,0.370157 -1.95008,4.354849 -1.95008,4.895721 0,0.191502 -0.401955,0.972084 -0.893233,1.734627 -1.025255,1.591357 -1.368383,3.147478 -0.913951,4.144848 0.238017,0.522394 0.238215,0.755878 7.94e-4,0.993254 -0.170677,0.170678 -0.310322,0.587923 -0.310322,0.927211 0,0.919499 -1.03311,3.83062 -1.574498,4.436653 -0.259995,0.291042 -0.567936,0.886361 -0.68431,1.322921 -0.116375,0.43656 -0.231003,0.85328 -0.254733,0.92604 -0.02373,0.0728 -0.129927,0.48948 -0.235993,0.92604 -0.106063,0.43657 -0.298981,0.99131 -0.428707,1.23278 -0.129722,0.24147 -0.166647,0.86554 -0.08205,1.38683 0.08825,0.5438 0.02727,1.10026 -0.143055,1.30549 -0.163277,0.19673 -0.393702,1.06094 -0.512061,1.92047 -0.305665,2.21973 -1.090049,3.02086 -2.917407,2.97969 -0.745453,-0.0168 -1.666925,-0.19217 -2.047719,-0.38973 z"
       id="path857" />
  </g>
</svg>
